HIERARCHY
ROOT Hips
{
  OFFSET 41.5837 103.804 -23.7772
  CHANNELS 6 Xposition Yposition Zposition Zrotation Xrotation Yrotation
  JOINT ToSpine
  {
    OFFSET -2.69724 7.43032 -0.144315
    CHANNELS 3 Zrotation Xrotation Yrotation
    JOINT Spine
    {
      OFFSET -0.0310711 10.7595 1.96963
      CHANNELS 3 Zrotation Xrotation Yrotation
      JOINT Spine1
      {
        OFFSET 19.9056 3.91189 0.764692
        CHANNELS 3 Zrotation Xrotation Yrotation
        JOINT Neck
        {
          OFFSET 25.9749 7.03908 -0.130764
          CHANNELS 3 Zrotation Xrotation Yrotation
          JOINT Head
          {
            OFFSET 9.52751 0.295786 -0.907742
            CHANNELS 3 Zrotation Xrotation Yrotation
            End Site
            {
              OFFSET 16.4037 0.713936 2.7358
            }
          }
        }
        JOINT LeftShoulder
        {
          OFFSET 17.7449 4.33886 11.7777
          CHANNELS 3 Zrotation Xrotation Yrotation
          JOINT LeftArm
          {
            OFFSET 0.911315 1.27913 9.80584
            CHANNELS 3 Zrotation Xrotation Yrotation
            JOINT LeftForeArm
            {
              OFFSET 28.6126 1.18197 -3.53199
              CHANNELS 3 Zrotation Xrotation Yrotation
              JOINT LeftHand
              {
                OFFSET 27.5088 0.0218783 0.327423
                CHANNELS 3 Zrotation Xrotation Yrotation
                End Site
                {
                  OFFSET 18.6038 -0.000155887 0.382096
                }
              }
            }
          }
        }
        JOINT RightShoulder
        {
          OFFSET 17.1009 2.89543 -12.2328
          CHANNELS 3 Zrotation Xrotation Yrotation
          JOINT RightArm
          {
            OFFSET 1.4228 0.178766 -10.211
            CHANNELS 3 Zrotation Xrotation Yrotation
            JOINT RightForeArm
            {
              OFFSET 28.733 1.87905 2.64907
              CHANNELS 3 Zrotation Xrotation Yrotation
              JOINT RightHand
              {
                OFFSET 27.4588 0.290562 -0.101845
                CHANNELS 3 Zrotation Xrotation Yrotation
                End Site
                {
                  OFFSET 17.8396 -0.255518 -0.000602873
                }
              }
            }
          }
        }
      }
    }
  }
  JOINT LeftUpLeg
  {
    OFFSET -5.61296 -2.22332 -10.2353
    CHANNELS 3 Zrotation Xrotation Yrotation
    JOINT LeftLeg
    {
      OFFSET 2.56703 -44.7417 -7.93097
      CHANNELS 3 Zrotation Xrotation Yrotation
      JOINT LeftFoot
      {
        OFFSET 3.16933 -46.5642 -3.96578
        CHANNELS 3 Zrotation Xrotation Yrotation
        JOINT LeftToeBase
        {
          OFFSET 0.346054 -6.02161 12.8035
          CHANNELS 3 Zrotation Xrotation Yrotation
          End Site
          {
            OFFSET 0.134235 -1.35082 5.13018
          }
        }
      }
    }
  }
  JOINT RightUpLeg
  {
    OFFSET -5.7928 -1.72406 10.6446
    CHANNELS 3 Zrotation Xrotation Yrotation
    JOINT RightLeg
    {
      OFFSET -2.57161 -44.7178 -7.85259
      CHANNELS 3 Zrotation Xrotation Yrotation
      JOINT RightFoot
      {
        OFFSET -3.10148 -46.5936 -4.03391
        CHANNELS 3 Zrotation Xrotation Yrotation
        JOINT RightToeBase
        {
          OFFSET -0.0828122 -6.13587 12.8035
          CHANNELS 3 Zrotation Xrotation Yrotation
          End Site
          {
            OFFSET -0.131328 -1.35082 5.13018
          }
        }
      }
    }
  }
}
MOTION
Frames:	13
Frame Time:	0.0333333
-351.988 103.754 31.9166 73.5699 1.81834 2.52037 -70.1915 0 88.8779 70.7544 70.4638 14.1833 4.64751 19.213 6.65319 -138.979 17.1352 166.789 -143.837 53.3594 161.367 2.35568 -3.34862 -32.2955 -100.099 51.0926 -88.2512 -6.60422 46.0833 -1.80209 12.9805 0.211704 3.45527 0.732938 -2.36425 45.1381 -66.6702 -38.0628 100.415 0.662226 -14.3788 16.6765 18.6205 -1.24009 -8.18342 -60.1399 -0.923209 95.1767 3.09506 14.4112 -3.68946 6.75481 8.52824 -0.812155 -10.1395 -26.6406 5.54017 -59.9835 5.95135 81.5537 -0.323176 17.0064 -10.111 -6.45681 -1.73633 0.979969 -0.776735 -0.9343 4.6212 
-352.002 103.754 31.908 73.5629 1.8127 2.53002 -70.1915 0 88.8779 70.8618 70.543 13.9903 4.58838 19.2297 6.83625 -139.185 17.1757 166.796 -143.911 53.3844 161.252 2.38733 -3.17875 -32.2527 -99.9414 51.2288 -88.6153 -6.841 46.0965 -1.51938 13.0452 0.233791 3.63514 0.757642 -2.45414 44.9597 -67.2801 -38.2665 100.223 0.518749 -14.8255 16.4501 19.0303 -1.21803 -7.87123 -60.1277 -0.920168 95.1693 3.09608 14.41 -3.66688 6.77561 8.46828 -0.816961 -10.1236 -26.5852 5.51213 -59.9994 5.99518 81.5933 -0.371715 16.9346 -10.1329 -6.43542 -1.68687 0.976925 -0.765146 -1.01335 4.44416 
-351.991 103.754 31.9305 73.484 1.68385 2.52883 -70.1915 0 88.8779 70.8134 70.5636 14.0857 4.36336 19.241 6.9063 -138.652 17.1545 166.854 -143.671 53.3759 161.459 2.40836 -3.12048 -32.4003 -99.7713 51.0337 -88.7511 -7.18546 44.9933 -1.24161 14.1969 0.427636 5.00226 0.72589 -2.3463 45.0397 -67.5247 -38.2537 99.9029 0.311113 -14.8101 16.2861 19.0824 -1.22085 -7.86698 -60.0461 -0.822634 95.2413 3.0423 14.4359 -3.62684 6.76662 8.45559 -0.815397 -10.0893 -26.5687 5.61002 -59.9445 6.08601 81.6746 -0.407703 16.8671 -10.0972 -6.44369 -1.64253 0.977135 -0.761504 -0.999718 4.43075 
-351.984 103.754 31.9372 73.4736 1.63877 2.51737 -70.1915 0 88.8779 70.7962 70.575 14.1468 4.38939 19.2604 6.88525 -138.562 17.1145 166.821 -143.335 53.2405 161.229 2.42412 -3.0556 -32.4411 -99.5811 51.0597 -88.9998 -7.25064 44.4971 -1.26246 14.3736 0.508232 5.58654 0.722493 -2.33388 45.0665 -67.343 -38.2187 99.9246 0.162054 -14.2388 16.2899 18.7911 -1.20055 -7.86271 -60.0402 -0.799251 95.267 3.02265 14.4419 -3.60453 6.76016 8.43746 -0.818129 -10.0717 -26.5267 5.6087 -59.928 6.10343 81.6979 -0.42095 16.8778 -10.0776 -6.4404 -1.64536 0.976824 -0.757934 -0.985815 4.41823 
-351.975 103.755 31.9467 73.4381 1.56235 2.51378 -70.1915 0 88.8779 70.704 70.534 14.3371 4.45872 19.2683 6.75068 -138.367 17.0234 166.726 -142.968 53.0831 161.14 2.44047 -2.94051 -32.3321 -99.5314 51.121 -89.1234 -7.41345 44.4134 -1.08062 14.5043 0.52671 5.69392 0.714766 -2.30559 45.1299 -67.3251 -38.1648 100.009 -0.148694 -13.8874 16.1118 18.6564 -1.23068 -8.10858 -60.0115 -0.750146 95.3041 2.99576 14.4451 -3.5756 6.74743 8.43475 -0.811982 -10.0699 -26.5236 5.61055 -59.9196 6.14758 81.731 -0.437176 16.8169 -10.0387 -6.44564 -1.61014 0.976851 -0.754414 -0.971708 4.40636 
-351.965 103.756 31.9592 73.4484 1.52004 2.48667 -70.1915 0 88.8779 70.5878 70.562 14.4127 4.45095 19.2792 6.85053 -137.984 16.9994 166.885 -142.898 53.097 161.476 2.44568 -2.96278 -32.4828 -99.4085 51.0031 -89.2655 -7.57273 44.2641 -0.948102 14.6495 0.54787 5.81578 0.708336 -2.28751 45.0715 -67.4479 -38.1403 99.8846 -0.258378 -13.5094 16.0939 17.3823 -1.14841 -8.14931 -60.042 -0.740088 95.3273 2.97409 14.4274 -3.54919 6.73487 8.43547 -0.809557 -10.0666 -26.5177 5.61316 -59.9181 6.1746 81.7745 -0.486674 16.8418 -10.0299 -6.42385 -1.62096 0.974667 -0.750925 -0.957475 4.39488 
-351.952 103.757 31.9683 73.4367 1.47475 2.47492 -70.1915 0 88.8779 70.4589 70.5924 14.5514 4.50164 19.3079 6.90641 -137.903 17.0904 167.044 -142.754 53.1746 161.639 2.45573 -2.93149 -32.5399 -99.2625 50.9989 -89.4797 -7.70631 44.1416 -0.833878 14.7311 0.570272 5.96261 0.720069 -2.33546 44.8773 -67.4258 -38.2682 99.9712 -0.22369 -13.5593 16.1133 17.5131 -1.1665 -8.20959 -60.0556 -0.720406 95.3463 2.95813 14.3987 -3.52812 6.71997 8.45389 -0.806439 -10.0732 -26.53 5.60847 -59.9383 6.17077 81.7594 -0.46565 16.79 -9.97242 -6.44372 -1.60014 0.97649 -0.747446 -0.943191 4.38356 
-351.941 103.759 31.9772 73.44 1.47836 2.45941 -70.1915 0 88.8779 70.4432 70.5483 14.5721 4.56905 19.2704 6.88142 -137.781 17.1146 167.249 -142.729 53.2227 161.974 2.476 -2.82673 -32.523 -99.21 51.0307 -89.582 -7.75314 44.0996 -0.787008 14.8058 0.589017 6.08236 0.709628 -2.30525 44.7962 -67.327 -38.2804 100.11 -0.273664 -13.4769 16.0905 17.4645 -1.15924 -8.18369 -60.0683 -0.734735 95.3402 2.95959 14.394 -3.5178 6.72294 8.44699 -0.807106 -10.0727 -26.5291 5.60882 -59.9172 6.16357 81.7647 -0.478303 16.8495 -9.98124 -6.43199 -1.63551 0.975768 -0.743957 -0.928933 4.37216 
-351.931 103.761 31.9898 73.4516 1.50847 2.44486 -70.1915 0 88.8779 70.6522 70.5518 14.2491 4.47191 19.1986 7.05941 -137.811 17.1977 167.467 -142.777 53.2968 162.067 2.50091 -2.71545 -32.5563 -99.1103 51.0559 -89.6653 -7.79247 44.0792 -0.77556 14.8556 0.6013 6.15993 0.70592 -2.304 44.5752 -67.4207 -38.4444 100.083 -0.244149 -13.4887 16.109 17.4141 -1.13449 -8.04047 -60.0926 -0.75737 95.3295 2.96384 14.3793 -3.53036 6.72708 8.45791 -0.804508 -10.0827 -26.5474 5.60102 -59.9065 6.06085 81.6537 -0.367096 16.9267 -9.9218 -6.4839 -1.69296 0.982215 -0.740437 -0.914776 4.36042 
-351.919 103.762 31.9997 73.4441 1.53847 2.4438 -70.1915 0 88.8779 70.7628 70.5375 14.1576 4.48695 19.1803 7.04248 -137.946 17.2594 167.598 -142.813 53.3473 162.118 2.51703 -2.61971 -32.5056 -99.0302 51.1196 -89.8008 -7.85636 44.1776 -0.704803 14.8544 0.590677 6.08067 0.712764 -2.33258 44.4582 -67.345 -38.5444 100.194 -0.167383 -13.6149 16.1438 17.4836 -1.16071 -8.18459 -60.1056 -0.774613 95.3079 2.97311 14.3488 -3.53697 6.73948 8.46889 -0.80848 -10.0847 -26.5505 5.59866 -59.9191 6.12408 81.7271 -0.461777 16.8906 -10.0047 -6.43638 -1.68043 0.976929 -0.736866 -0.900797 4.34812 
-351.909 103.764 32.0075 73.434 1.57602 2.44295 -70.1915 0 88.8779 70.6947 70.5192 14.1458 4.58071 19.1294 7.1737 -138.326 17.3166 167.92 -143.165 53.4224 162.297 2.54398 -2.49603 -32.5312 -98.9585 51.1855 -89.9847 -7.88398 44.218 -0.665844 14.9122 0.59679 6.1096 0.714015 -2.3487 44.225 -67.4013 -38.7028 100.263 -0.0642181 -13.9066 16.1628 17.5415 -1.14356 -8.04268 -60.1222 -0.796901 95.2777 2.9869 14.301 -3.54412 6.75429 8.49295 -0.808661 -10.0882 -26.5556 5.59375 -59.9567 6.04971 81.6238 -0.362333 16.8245 -9.94886 -6.49319 -1.666 0.98281 -0.733224 -0.887072 4.33501 
-351.905 103.766 32.0256 73.4226 1.61347 2.44207 -70.1915 0 88.8779 70.7322 70.433 14.1628 4.72097 19.0747 7.04046 -138.69 17.2894 168.256 -143.576 53.4279 162.568 2.56978 -2.33971 -32.4448 -98.8634 51.2615 -90.1517 -7.84823 44.3409 -0.700792 14.8209 0.596343 6.13297 0.698212 -2.30116 44.1186 -67.5172 -38.7514 100.397 -0.191214 -14.15 15.9911 17.5665 -1.14467 -8.0386 -60.1088 -0.819256 95.2547 2.99836 14.3032 -3.55565 6.76334 8.49812 -0.814202 -10.0992 -26.5819 5.59481 -59.9172 5.98106 81.5558 -0.285056 16.899 -9.93863 -6.53261 -1.71709 0.987785 -0.72949 -0.873678 4.32084 
-351.898 103.768 32.0376 73.3984 1.63273 2.44132 -70.1915 0 88.8779 70.7605 70.4132 14.1853 4.72502 19.074 6.98081 -138.722 17.2611 168.439 -143.79 53.4494 162.873 2.56216 -2.38916 -32.4796 -98.7231 51.172 -90.2447 -7.86365 44.4041 -0.724276 14.6896 0.573363 5.99786 0.680162 -2.23922 44.1465 -67.6925 -38.7303 100.313 -0.254171 -14.3787 15.8822 17.5058 -1.12583 -7.94013 -60.104 -0.827168 95.2322 3.00882 14.267 -3.5548 6.77583 8.515 -0.816388 -10.0971 -26.5813 5.60149 -59.9282 5.99177 81.5483 -0.289836 16.835 -9.94454 -6.54157 -1.69225 0.988386 -0.725643 -0.86069 4.30539 
